<?xml version="1.0" encoding="UTF-8"?>
<svg xmlns="http://www.w3.org/2000/svg" viewBox="0 0 256 256">
  <defs>
    <style>
      .cls-1 {
        opacity: .81;
      }

      .cls-2 {
        stroke: #000;
        stroke-width: .25px;
      }

      .cls-2, .cls-3, .cls-4, .cls-5 {
        stroke-miterlimit: 10;
      }

      .cls-6 {
        fill: #fff;
      }

      .cls-3 {
        fill: #e6e6e6;
        stroke: #ccc;
      }

      .cls-4 {
        stroke: #333;
      }

      .cls-5 {
        fill: none;
        stroke: #fff;
        stroke-width: 3px;
      }

      .cls-7 {
        fill: #fbb03b;
      }
    </style>
  </defs>
  <g id="_背景" data-name="背景">
    <rect class="cls-7" width="256" height="256" rx="40" ry="40"/>
    <line class="cls-2" x1="15" y1="53" x2="237" y2="53"/>
    <line class="cls-2" x1="15" y1="90" x2="237" y2="90"/>
    <line class="cls-2" x1="15" y1="127" x2="237" y2="127"/>
    <line class="cls-2" x1="15" y1="163" x2="237" y2="163"/>
    <line class="cls-2" x1="15" y1="199" x2="237" y2="199"/>
    <line class="cls-2" x1="53" y1="15" x2="53" y2="237"/>
    <line class="cls-2" x1="89" y1="15" x2="89" y2="237"/>
    <line class="cls-2" x1="126" y1="16" x2="126" y2="238"/>
    <line class="cls-2" x1="163" y1="19" x2="163" y2="241"/>
    <line class="cls-2" x1="198" y1="19" x2="198" y2="241"/>
  </g>
  <g id="_黑子" data-name="黑子">
    <g id="_棋子5" data-name="棋子5">
      <circle class="cls-4" cx="198.5" cy="199.5" r="18"/>
      <path class="cls-6" d="M204.43,186.84c.61.28,1.18.63,1.71,1.04l-.3-.23c.54.42,1.04.91,1.47,1.44.23.28.72.44,1.06.44.37,0,.81-.16,1.06-.44s.46-.66.44-1.06l-.05-.4c-.07-.25-.2-.47-.39-.66-.43-.54-.93-1.02-1.47-1.44-.63-.49-1.29-.94-2.02-1.28-.37-.17-.74-.26-1.16-.15-.35.1-.73.36-.9.69-.18.35-.28.77-.15,1.16.11.35.34.73.69.9h0Z"/>
      <path class="cls-6" d="M211.51,193.07c1.93,0,1.93-3,0-3s-1.93,3,0,3h0Z"/>
    </g>
    <g id="_棋子4" data-name="棋子4">
      <circle class="cls-4" cx="163.5" cy="163.5" r="18"/>
      <path class="cls-6" d="M169.43,150.84c.61.28,1.18.63,1.71,1.04l-.3-.23c.54.42,1.04.91,1.47,1.44.23.28.72.44,1.06.44.37,0,.81-.16,1.06-.44s.46-.66.44-1.06l-.05-.4c-.07-.25-.2-.47-.39-.66-.43-.54-.93-1.02-1.47-1.44-.63-.49-1.29-.94-2.02-1.28-.37-.17-.74-.26-1.16-.15-.35.1-.73.36-.9.69-.18.35-.28.77-.15,1.16.11.35.34.73.69.9h0Z"/>
      <path class="cls-6" d="M176.51,157.07c1.93,0,1.93-3,0-3s-1.93,3,0,3h0Z"/>
    </g>
    <g id="_棋子3" data-name="棋子3">
      <circle class="cls-4" cx="126.5" cy="127.5" r="18"/>
      <path class="cls-6" d="M132.43,114.84c.61.28,1.18.63,1.71,1.04l-.3-.23c.54.42,1.04.91,1.47,1.44.23.28.72.44,1.06.44.37,0,.81-.16,1.06-.44s.46-.66.44-1.06l-.05-.4c-.07-.25-.2-.47-.39-.66-.43-.54-.93-1.02-1.47-1.44-.63-.49-1.29-.94-2.02-1.28-.37-.17-.74-.26-1.16-.15-.35.1-.73.36-.9.69-.18.35-.28.77-.15,1.16.11.35.34.73.69.9h0Z"/>
      <path class="cls-6" d="M139.51,121.07c1.93,0,1.93-3,0-3s-1.93,3,0,3h0Z"/>
    </g>
    <g id="_棋子2" data-name="棋子2">
      <circle class="cls-4" cx="89.5" cy="89.5" r="18"/>
      <path class="cls-6" d="M95.43,76.84c.61.28,1.18.63,1.71,1.04l-.3-.23c.54.42,1.04.91,1.47,1.44.23.28.72.44,1.06.44.37,0,.81-.16,1.06-.44s.46-.66.44-1.06l-.05-.4c-.07-.25-.2-.47-.39-.66-.43-.54-.93-1.02-1.47-1.44-.63-.49-1.29-.94-2.02-1.28-.37-.17-.74-.26-1.16-.15-.35.1-.73.36-.9.69-.18.35-.28.77-.15,1.16.11.35.34.73.69.9h0Z"/>
      <path class="cls-6" d="M102.51,83.07c1.93,0,1.93-3,0-3s-1.93,3,0,3h0Z"/>
    </g>
    <g id="_棋子_1" data-name="棋子 1">
      <circle class="cls-4" cx="53.5" cy="53.5" r="18"/>
      <path class="cls-6" d="M59.43,40.84c.61.28,1.18.63,1.71,1.04l-.3-.23c.54.42,1.04.91,1.47,1.44.23.28.72.44,1.06.44.37,0,.81-.16,1.06-.44s.46-.66.44-1.06l-.05-.4c-.07-.25-.2-.47-.39-.66-.43-.54-.93-1.02-1.47-1.44-.63-.49-1.29-.94-2.02-1.28-.37-.17-.74-.26-1.16-.15-.35.1-.73.36-.9.69-.18.35-.28.77-.15,1.16.11.35.34.73.69.9h0Z"/>
      <path class="cls-6" d="M66.51,47.07c1.93,0,1.93-3,0-3s-1.93,3,0,3h0Z"/>
    </g>
  </g>
  <g id="_白子" data-name="白子">
    <circle class="cls-3" cx="197.5" cy="126.5" r="18"/>
    <path class="cls-6" d="M203.43,113.84c.61.28,1.18.63,1.71,1.04l-.3-.23c.54.42,1.04.91,1.47,1.44.23.28.72.44,1.06.44.37,0,.81-.16,1.06-.44s.46-.66.44-1.06l-.05-.4c-.07-.25-.2-.47-.39-.66-.43-.54-.93-1.02-1.47-1.44-.63-.49-1.29-.94-2.02-1.28-.37-.17-.74-.26-1.16-.15-.35.1-.73.36-.9.69-.18.35-.28.77-.15,1.16.11.35.34.73.69.9h0Z"/>
    <path class="cls-6" d="M210.51,120.07c1.93,0,1.93-3,0-3s-1.93,3,0,3h0Z"/>
  </g>
  <g id="_胜利线" data-name="胜利线">
    <g class="cls-1">
      <line class="cls-5" x1="35.5" y1="35.5" x2="218.5" y2="218.5"/>
      <line class="cls-6" x1="35.5" y1="35.5" x2="218.5" y2="218.5"/>
    </g>
  </g>
</svg>