<?xml version="1.0" encoding="UTF-8"?>
<svg id="_图层_2" data-name="图层 2" xmlns="http://www.w3.org/2000/svg" viewBox="0 0 37 37">
  <defs>
    <style>
      .cls-1 {
        fill: #fff;
      }

      .cls-2 {
        fill: #e6e6e6;
        stroke: #ccc;
        stroke-miterlimit: 10;
      }
    </style>
  </defs>
  <g id="_白子" data-name="白子">
    <circle class="cls-2" cx="18.5" cy="18.5" r="18"/>
    <path class="cls-1" d="M24.43,5.84c.61.28,1.18.63,1.71,1.04l-.3-.23c.54.42,1.04.91,1.47,1.44.23.28.72.44,1.06.44.37,0,.81-.16,1.06-.44s.46-.66.44-1.06l-.05-.4c-.07-.25-.2-.47-.39-.66-.43-.54-.93-1.02-1.47-1.44-.63-.49-1.29-.94-2.02-1.28-.37-.17-.74-.26-1.16-.15-.35.1-.73.36-.9.69-.18.35-.28.77-.15,1.16.11.35.34.73.69.9h0Z"/>
    <path class="cls-1" d="M31.51,12.07c1.93,0,1.93-3,0-3s-1.93,3,0,3h0Z"/>
  </g>
</svg>